Coordinates
version=1
nRows=10
nColumns=40
inDegrees=yes

Units are S.I. units (second, meters, Newtons, ...)
Angles are in degrees.

endheader
time	pelvis_tilt	pelvis_list	pelvis_rotation	pelvis_tx	pelvis_ty	pelvis_tz	hip_flexion_r	hip_adduction_r	hip_rotation_r	knee_angle_r	knee_angle_r_beta	ankle_angle_r	subtalar_angle_r	mtp_angle_r	hip_flexion_l	hip_adduction_l	hip_rotation_l	knee_angle_l	knee_angle_l_beta	ankle_angle_l	subtalar_angle_l	mtp_angle_l	lumbar_extension	lumbar_bending	lumbar_rotation	arm_flex_r	arm_add_r	arm_rot_r	elbow_flex_r	pro_sup_r	wrist_flex_r	wrist_dev_r	arm_flex_l	arm_add_l	arm_rot_l	elbow_flex_l	pro_sup_l	wrist_flex_l	wrist_dev_l
     47.84500000	     -3.69255401	     -5.18298168	     10.44518262	      1.01858566	      0.92450016	      0.48922855	      0.42260000	      4.72183674	    -21.45628741	      8.94037755	      8.94037755	     13.69306149	     -0.93472479	     -6.83102427	     29.61318005	     -6.87385905	      0.76143036	     22.46501427	     22.46501427	      3.33184516	     -7.42339576	      4.56494104	     -8.59203710	      5.03911060	      3.17363281	     40.38003482	    -18.82872205	     -7.79990882	     94.77593581	     44.42260539	      0.00000000	      0.00000000	     -7.10341002	     -6.05306684	     -4.29465406	     25.23677592	     45.90673489	      0.00000000	      0.00000000
     47.85835714	     -3.66822880	     -5.23086949	     10.31286431	      1.01982324	      0.92363807	      0.48777237	     -0.03289923	      4.71916791	    -21.29897356	      9.02952660	      9.02952660	     14.05483999	     -0.81173672	     -6.77109184	     29.03626940	     -6.89816557	      0.62335417	     22.78584731	     22.78584731	      3.45628107	     -7.94834710	      4.36498893	     -8.49343746	      4.98725865	      3.21957501	     39.85541832	    -18.47937255	     -7.76016850	     94.62073785	     44.42853544	      0.00000000	      0.00000000	     -7.10588709	     -6.23435287	     -4.34093344	     25.30215635	     45.91572903	      0.00000000	      0.00000000
     47.87171429	     -3.67113019	     -5.28148162	     10.12718489	      1.02102182	      0.92289353	      0.48626995	     -0.40335569	      4.67800836	    -21.05716499	      9.21929588	      9.21929588	     14.37376088	     -0.71920110	     -6.76592853	     28.48089578	     -6.92450583	      0.59701243	     23.05459873	     23.05459873	      3.73185982	     -8.36400694	      4.17768866	     -8.39594878	      4.94150834	      3.27930786	     39.26639667	    -18.17072855	     -7.67063173	     94.38714027	     44.43316302	      0.00000000	      0.00000000	     -7.03926698	     -6.45666642	     -4.38081192	     25.35922644	     45.92462015	      0.00000000	      0.00000000
     47.88507143	     -3.63321601	     -5.24399891	      9.96285267	      1.02210733	      0.92239840	      0.48447265	     -0.73554466	      4.48991622	    -20.87919577	      9.59549629	      9.59549629	     14.69394581	     -0.72465071	     -6.63356465	     27.93050161	     -6.82769818	      0.65282792	     23.36295508	     23.36295508	      4.02826562	     -8.91608773	      3.93195591	     -8.39500902	      4.82556804	      3.29639214	     38.48167660	    -17.88954097	     -7.61089503	     93.87014651	     44.44858970	      0.00000000	      0.00000000	     -6.84580409	     -6.65628816	     -4.42052645	     25.47751492	     45.93582676	      0.00000000	      0.00000000
     47.89842857	     -3.75192347	     -5.14231900	      9.75548292	      1.02290869	      0.92198613	      0.48245011	     -0.58881414	      4.05190273	    -20.68796788	     10.62822989	     10.62822989	     15.46851045	     -0.73253000	     -5.60959160	     27.45764580	     -6.53136307	      1.09419599	     23.41114915	     23.41114915	      4.01902391	    -10.07095740	      3.49115234	     -8.22456464	      4.59054782	      3.35541609	     37.89774930	    -17.63998414	     -7.74589016	     92.19360049	     44.52373598	      0.00000000	      0.00000000	     -6.53105830	     -6.84372889	     -4.49136080	     25.64966952	     45.95752673	      0.00000000	      0.00000000
     47.91178571	     -3.68407058	     -5.07480644	      9.60206793	      1.02385157	      0.92204081	      0.48027895	     -0.87358110	      3.77074769	    -20.49860524	     11.14121922	     11.14121922	     15.66973117	     -0.75218732	     -5.41098562	     26.97515901	     -6.39564549	      1.19952765	     23.72801763	     23.72801763	      4.44356842	    -10.45387380	      3.23213083	     -8.33598052	      4.46569355	      3.25935752	     36.96169423	    -17.37574407	     -7.53484554	     91.48221767	     44.54096885	      0.00000000	      0.00000000	     -6.17827609	     -7.04209384	     -4.51264680	     25.74103000	     45.96888196	      0.00000000	      0.00000000
     47.92514286	     -3.76862144	     -4.93708484	      9.40626743	      1.02443453	      0.92216885	      0.47786577	     -0.64681613	      3.22324379	    -20.31737837	     12.35257835	     12.35257835	     16.11531564	     -0.90992215	     -4.86663888	     26.60933644	     -6.10115421	      1.43363671	     23.88453710	     23.88453710	      4.72251096	    -11.14425715	      3.13671300	     -8.26221519	      4.27232786	      3.35576478	     36.13865278	    -17.37901327	     -7.27596223	     89.53531596	     44.60479607	      0.00000000	      0.00000000	     -5.54977303	     -7.20769620	     -4.50483623	     25.78802958	     45.98210548	      0.00000000	      0.00000000
     47.93850000	     -3.77571788	     -4.79974457	      9.22526076	      1.02505169	      0.92264219	      0.47525817	     -0.53150527	      2.67901426	    -20.17891696	     13.49095247	     13.49095247	     16.36324195	     -1.01017524	     -4.44957397	     26.20527851	     -5.82982968	      1.59832990	     24.07902894	     24.07902894	      5.08557876	    -11.68493306	      3.13675099	     -8.30724785	      4.10530771	      3.33644024	     35.21300511	    -17.27806001	     -6.91017541	     87.62201476	     44.66208916	      0.00000000	      0.00000000	     -4.92668639	     -7.37055406	     -4.47413745	     25.79592390	     45.99100013	      0.00000000	      0.00000000
     47.95185714	     -3.72351172	     -4.70464726	      9.04506035	      1.02569307	      0.92337085	      0.47253670	     -0.51192978	      2.20060775	    -20.00103396	     14.51654375	     14.51654375	     16.40792813	     -1.11364597	     -4.36092624	     25.75819528	     -5.63384958	      1.65199953	     24.27229713	     24.27229713	      5.51758004	    -12.05300774	      3.10114964	     -8.48776797	      4.00530963	      3.28184015	     34.04344191	    -17.17562810	     -6.58961255	     86.11430797	     44.70103337	      0.00000000	      0.00000000	     -4.27760733	     -7.52499342	     -4.45079491	     25.92502175	     45.99984963	      0.00000000	      0.00000000
     47.96521429	     -3.78935742	     -4.52394334	      8.79270340	      1.02615815	      0.92409613	      0.46961424	     -0.03840989	      1.44700811	    -19.83786619	     16.20995035	     16.20995035	     16.50750335	     -1.33605477	     -4.39959438	     25.34442997	     -5.33055999	      1.60556786	     24.31273233	     24.31273233	      5.85961275	    -12.45138983	      3.26359350	     -8.43366251	      3.82319719	      3.49825786	     32.96958808	    -17.37830651	     -6.19939008	     83.53283213	     44.77515376	      0.00000000	      0.00000000	     -3.37823734	     -7.63530796	     -4.38060276	     26.08498903	     46.00524948	      0.00000000	      0.00000000
